<svg xmlns="http://www.w3.org/2000/svg" width="24" height="24" viewBox="0 0 1032 993" fill="currentColor">
<g clip-path="url(#clip0_3_11)">
<path d="M458.983 149.128C494.622 69.5688 495.681 67.7493 511.207 61.9602C527.615 56.0057 545.787 63.9451 555.314 81.3124C557.431 85.4474 575.427 124.152 595.011 167.322C614.594 210.492 638.236 262.429 647.41 282.442L658.071 305.695C662.785 315.976 675.079 320.307 685.196 315.248L690.693 312.5C743.974 290.17 830.192 256.639 871.124 246.715C909.409 237.453 932.169 240.926 945.048 257.797C957.928 274.999 957.928 283.435 944.342 350.754C934.639 399.382 929.699 421.712 922.112 453.8L921.063 458.313C919.818 463.667 920.832 469.298 923.867 473.882L925.464 476.295C943.99 504.578 956.693 535.509 964.279 570.905C972.042 607.128 972.042 612.256 964.985 609.609C963.397 609.113 961.456 602.993 959.339 591.084C951.576 545.929 937.991 510.368 916.643 479.437L913.882 475.379C910.698 470.697 909.647 464.885 910.991 459.384L914.173 446.357C921.054 418.238 944.166 304.937 945.401 293.028C947.342 276.323 940.461 262.263 926.699 254.985C915.055 249.031 897.236 249.527 869.36 256.474C821.9 268.549 748.209 297.182 690.693 321C684.312 324.559 676.623 328.638 671.888 331.149L671.881 331.153C671.637 331.282 671.402 331.407 671.175 331.527C669.117 332.619 667.749 333.346 667.501 333.5C667.181 333.698 666.807 333.96 666.45 334.21L666.444 334.214C665.903 334.593 665.404 334.943 665.193 335C664.841 335.095 663.049 335.07 661.72 332.5C656.348 322.106 642.428 293.057 629.414 264.413L625.287 255.343L625.272 255.31C547.566 84.5395 543.569 75.7537 536.959 72.7872C536.601 72.6266 536.236 72.4831 535.85 72.3318L535.848 72.3311L535.683 72.2664L535.554 72.2152C522.674 67.2531 512.089 68.5763 504.502 76.0194C501.326 79.162 481.213 122.001 443.281 206.026C412.229 274.834 386.823 331.898 386.823 332.559C386.823 333.386 385.765 334.71 384.53 335.702C382.765 337.025 377.12 335.206 362.123 328.424C338.305 317.673 277.26 294.682 243.915 283.931C148.466 253.166 117.943 246.881 101.182 254.985C87.2444 261.602 80.3636 274.007 82.1279 289.555C84.4215 308.411 106.299 406.825 116.885 445.033L126.965 480.364C128.854 486.982 127.136 494.051 122.91 499.483C55.5262 586.087 50.6077 772.321 129.206 893.089C131.264 896.251 129.026 900.5 125.254 900.5C123.83 900.5 122.491 899.866 121.618 898.741C41.3127 795.317 43.1734 581.911 112.125 497.297C116.734 491.641 118.707 484.155 116.627 477.163L106.475 443.049C91.1259 385.158 74.365 307.087 73.3064 288.893C72.6007 274.999 72.7771 273.345 77.5407 264.91C87.5973 246.715 105.417 239.603 131.352 243.242C170.696 248.866 294.197 289.389 361.064 318.5C370.768 322.801 378.884 325.943 379.237 325.613C380.119 324.62 412.935 252.174 458.983 149.128Z" fill="currentColor"/>
<path d="M265.737 457.947C239.673 464.082 220.749 474.865 202.183 494.014C190.758 505.727 187.009 511.305 179.511 527.665C169.335 549.417 161.658 577.49 156.481 611.327C151.84 642.374 151.84 722.875 156.481 744.813C169.87 807.838 195.578 841.861 254.133 874.21C298.942 898.751 355.712 915.297 424.622 923.849C463.004 928.683 537.448 930.542 574.046 927.567C669.02 919.945 750.783 895.962 802.911 860.452C838.794 835.912 858.075 806.909 870.393 758.199C875.57 738.306 875.927 734.03 876.82 695.918C878.426 620.994 869.322 565.778 848.256 523.203C837.902 502.381 817.55 481.186 797.377 470.403C762.03 451.44 723.826 449.953 690.621 466.127C666.163 478.212 653.845 492.899 640.634 525.806C637.242 534.358 632.244 543.654 629.566 546.628C626.888 549.603 608.5 560.386 588.863 570.611C569.225 581.023 544.589 594.408 534.235 600.358L516.5 613L495.853 600.172C485.141 593.851 459.97 580.279 439.975 569.868C419.98 559.456 401.414 548.859 398.736 546.071C396.058 543.282 391.238 533.986 388.025 525.434C384.812 516.882 379.634 505.727 376.421 500.707C369.459 489.181 354.106 474.493 342.145 467.615C321.972 456.274 290.195 452.184 265.737 457.947ZM312.331 466.499C329.291 469.66 346.429 479.327 358.212 492.155C367.852 502.567 372.851 511.676 383.562 538.448C389.453 552.764 396.237 557.783 441.225 581.208C464.433 593.479 490.675 607.608 499.245 613L516.5 624.5L540.305 607.794C554.229 599.8 580.115 585.67 597.789 576.375C632.601 558.341 639.385 552.764 645.812 536.961C661.343 498.105 669.912 486.95 692.049 475.609C723.112 459.806 757.388 460.364 790.772 477.468C798.627 481.558 809.695 489.181 815.229 494.386C846.828 523.575 864.859 583.811 867.715 668.96C869.679 732.729 861.11 774.56 838.437 811.185C823.977 834.238 805.768 849.483 772.027 867.145C734.894 886.48 708.652 895.218 655.987 905.815C609.214 915.297 584.578 918.086 537.091 919.387C419.088 922.176 314.117 899.866 245.028 857.106C220.035 841.489 207.896 831.078 197.184 816.205C173.441 783.298 163.979 751.692 162.015 697.777C158.802 614.859 176.654 536.961 206.825 502.195C231.104 473.936 274.485 459.248 312.331 466.499Z" fill="currentColor"/>
<path d="M493.487 663.169C484.875 669.138 471.315 680.692 463.253 688.779C436.501 715.738 427.888 738.653 433.752 767.537C437.233 784.675 449.877 813.367 461.97 830.89C477.545 853.998 509.22 886 516 886C520.214 886 545.343 859.197 557.253 843.599C571.546 825.113 582.173 805.857 589.32 786.023C593.901 773.121 594.817 767.537 595 753.095C595 737.69 594.45 734.417 589.32 723.055C585.838 714.968 579.058 705.147 571.179 696.289C553.039 676.07 524.429 651 516 651C514.168 651 502.099 657.007 493.487 663.169ZM529.768 672.604C549.008 686.083 571.363 709.191 578.509 723.248C588.77 743.082 587.121 769.27 573.745 797.192C566.598 812.404 550.474 837.63 541.678 847.643C532.15 858.234 518.016 875.5 516 875.5C512.702 875.5 480.477 840.133 470.766 825.498C451.526 796.999 442.181 772.159 442.181 750.399C442.181 731.721 449.327 716.893 467.651 698.215C479.195 686.469 512.885 661 516 661C516.55 661 521.156 666.635 529.768 672.604Z" fill="currentColor"/>
</g>
<g clip-path="url(#clip1_3_11)">
<path d="M573.017 149.128C537.378 69.5688 536.319 67.7493 520.793 61.9602C504.385 56.0057 486.213 63.9451 476.686 81.3124C474.569 85.4474 456.573 124.152 436.989 167.322C417.406 210.492 393.764 262.429 384.59 282.442L373.929 305.695C369.215 315.976 356.921 320.307 346.804 315.248L341.307 312.5C288.025 290.17 201.808 256.639 160.876 246.715C122.591 237.453 99.8311 240.926 86.9517 257.797C74.0723 274.999 74.0723 283.435 87.6574 350.754C97.3611 399.382 102.301 421.712 109.888 453.8L110.937 458.313C112.182 463.667 111.167 469.298 108.133 473.882L106.535 476.295C88.0103 504.578 75.3072 535.509 67.7207 570.905C59.9578 607.128 59.9578 612.256 67.015 609.609C68.6029 609.113 70.5436 602.993 72.6608 591.084C80.4237 545.929 94.0089 510.368 115.357 479.437L118.118 475.379C121.302 470.697 122.353 464.885 121.009 459.384L117.827 446.357C110.946 418.238 87.8339 304.937 86.5989 293.028C84.6581 276.323 91.5389 262.263 105.3 254.985C116.945 249.031 134.764 249.527 162.64 256.474C210.1 268.549 283.791 297.182 341.307 321C347.688 324.559 355.377 328.638 360.112 331.149L360.119 331.153C360.362 331.282 360.598 331.407 360.825 331.527C362.883 332.619 364.25 333.346 364.499 333.5C364.819 333.698 365.193 333.96 365.55 334.21L365.556 334.214C366.096 334.593 366.596 334.943 366.807 335C367.159 335.095 368.951 335.07 370.279 332.5C375.652 322.106 389.572 293.057 402.585 264.413L406.713 255.343L406.728 255.31C484.433 84.5395 488.431 75.7537 495.041 72.7872C495.399 72.6266 495.764 72.4831 496.15 72.3318L496.152 72.3311L496.316 72.2664L496.446 72.2152C509.325 67.2531 519.911 68.5763 527.498 76.0194C530.673 79.162 550.786 122.001 588.719 206.026C619.771 274.834 645.177 331.898 645.177 332.559C645.177 333.386 646.235 334.71 647.47 335.702C649.235 337.025 654.88 335.206 669.877 328.424C693.695 317.673 754.74 294.682 788.085 283.931C883.534 253.166 914.057 246.881 930.817 254.985C944.755 261.602 951.636 274.007 949.872 289.555C947.578 308.411 925.701 406.825 915.115 445.033L905.034 480.364C903.146 486.982 904.864 494.051 909.09 499.483C976.474 586.087 981.392 772.321 902.794 893.089C900.736 896.251 902.974 900.5 906.746 900.5C908.17 900.5 909.509 899.866 910.382 898.741C990.687 795.317 988.827 581.911 919.875 497.297C915.266 491.641 913.293 484.155 915.373 477.163L925.525 443.049C940.874 385.158 957.635 307.087 958.693 288.893C959.399 274.999 959.223 273.345 954.459 264.91C944.403 246.715 926.583 239.603 900.648 243.242C861.304 248.866 737.803 289.389 670.936 318.5C661.232 322.801 653.116 325.943 652.763 325.613C651.881 324.62 619.065 252.174 573.017 149.128Z" fill="currentColor"/>
<path d="M766.263 457.947C792.327 464.082 811.251 474.865 829.817 494.014C841.242 505.727 844.991 511.305 852.489 527.665C862.665 549.417 870.342 577.49 875.519 611.327C880.16 642.374 880.16 722.875 875.519 744.813C862.129 807.838 836.422 841.861 777.867 874.21C733.058 898.751 676.287 915.297 607.378 923.849C568.995 928.683 494.552 930.542 457.954 927.567C362.98 919.945 281.217 895.962 229.088 860.452C193.205 835.912 173.925 806.909 161.607 758.199C156.43 738.306 156.073 734.03 155.18 695.918C153.573 620.994 162.678 565.778 183.744 523.203C194.098 502.381 214.45 481.186 234.623 470.403C269.97 451.44 308.174 449.953 341.379 466.127C365.837 478.212 378.155 492.899 391.365 525.806C394.757 534.358 399.756 543.654 402.434 546.628C405.112 549.603 423.5 560.386 443.137 570.611C462.774 581.023 487.411 594.408 497.765 600.358L515.5 613L536.147 600.172C546.859 593.851 572.03 580.279 592.025 569.868C612.019 559.456 630.586 548.859 633.264 546.071C635.941 543.282 640.761 533.986 643.975 525.434C647.188 516.882 652.365 505.727 655.579 500.707C662.541 489.181 677.894 474.493 689.855 467.615C710.028 456.274 741.805 452.184 766.263 457.947ZM719.668 466.499C702.709 469.66 685.571 479.327 673.788 492.155C664.148 502.567 659.149 511.676 648.438 538.448C642.547 552.764 635.763 557.783 590.775 581.208C567.567 593.479 541.324 607.608 532.755 613L515.5 624.5L491.695 607.794C477.77 599.8 451.885 585.67 434.211 576.375C399.399 558.341 392.615 552.764 386.188 536.961C370.657 498.105 362.088 486.95 339.951 475.609C308.888 459.806 274.612 460.364 241.228 477.468C233.373 481.558 222.305 489.181 216.77 494.386C185.172 523.575 167.141 583.811 164.285 668.96C162.321 732.729 170.89 774.56 193.562 811.185C208.023 834.238 226.232 849.483 259.973 867.145C297.106 886.48 323.348 895.218 376.013 905.815C422.785 915.297 447.422 918.086 494.909 919.387C612.912 922.176 717.883 899.866 786.971 857.106C811.965 841.489 824.104 831.078 834.816 816.205C858.559 783.298 868.021 751.692 869.984 697.777C873.198 614.859 855.346 536.961 825.175 502.195C800.896 473.936 757.515 459.248 719.668 466.499Z" fill="currentColor"/>
<path d="M538.513 663.169C547.125 669.138 560.684 680.692 568.747 688.779C595.499 715.738 604.111 738.653 598.248 767.537C594.766 784.675 582.123 813.367 570.029 830.89C554.454 853.998 522.78 886 516 886C511.785 886 486.657 859.197 474.747 843.599C460.454 825.113 449.826 805.857 442.68 786.023C438.099 773.121 437.183 767.537 437 753.095C437 737.69 437.55 734.417 442.68 723.055C446.162 714.968 452.941 705.147 460.821 696.289C478.961 676.07 507.571 651 516 651C517.832 651 529.901 657.007 538.513 663.169ZM502.232 672.604C482.992 686.083 460.637 709.191 453.491 723.248C443.23 743.082 444.879 769.27 458.255 797.192C465.402 812.404 481.526 837.63 490.322 847.643C499.85 858.234 513.984 875.5 516 875.5C519.298 875.5 551.523 840.133 561.234 825.498C580.474 796.999 589.819 772.159 589.819 750.399C589.819 731.721 582.673 716.893 564.349 698.215C552.805 686.469 519.115 661 516 661C515.45 661 510.844 666.635 502.232 672.604Z" fill="currentColor"/>
</g>
<defs>
<clipPath id="clip0_3_11">
<rect width="516" height="993" fill="white"/>
</clipPath>
<clipPath id="clip1_3_11">
<rect width="516" height="993" fill="white" transform="matrix(-1 0 0 1 1032 0)"/>
</clipPath>
</defs>
</svg>
